<?xml version="1.0" standalone="no"?>
<!DOCTYPE svg PUBLIC "-//W3C//DTD SVG 20010904//EN"
 "http://www.w3.org/TR/2001/REC-SVG-20010904/DTD/svg10.dtd">
<svg version="1.0" xmlns="http://www.w3.org/2000/svg"
 width="2048.000000pt" height="2048.000000pt" viewBox="0 0 2048.000000 2048.000000"
 preserveAspectRatio="xMidYMid meet">
<metadata>
Created by potrace 1.11, written by Peter Selinger 2001-2013
</metadata>
<g transform="translate(0.000000,2048.000000) scale(0.100000,-0.100000)"
fill="#000000" stroke="none">
<path d="M10590 18973 c-472 -27 -925 -128 -1225 -273 -155 -75 -334 -195
-460 -307 -122 -109 -164 -158 -333 -383 -144 -194 -212 -266 -346 -374 -213
-169 -277 -204 -564 -306 -258 -90 -328 -122 -337 -150 -11 -35 21 -58 110
-76 83 -17 205 -15 343 7 96 15 122 17 122 10 0 -4 -38 -26 -85 -49 -114 -56
-161 -87 -181 -117 -15 -23 -15 -27 0 -49 8 -13 29 -27 46 -31 16 -4 28 -11
25 -15 -9 -14 60 -23 112 -15 l46 7 -15 -24 c-130 -200 -209 -412 -268 -723
-18 -93 -68 -350 -112 -570 -142 -718 -195 -1086 -170 -1181 18 -68 17 -75
-14 -64 -75 29 -168 3 -244 -67 -130 -120 -180 -305 -130 -478 35 -119 39
-153 50 -385 5 -124 15 -279 21 -345 11 -127 70 -598 93 -751 17 -109 33 -341
42 -597 6 -167 9 -193 28 -230 21 -40 22 -48 13 -167 -5 -69 -10 -345 -11
-615 -1 -413 2 -510 16 -620 20 -148 75 -379 113 -475 14 -36 64 -173 112
-305 148 -415 223 -555 426 -795 l63 -75 -6 -525 -5 -525 -80 -8 c-84 -8 -444
-106 -561 -153 -281 -111 -511 -279 -629 -457 l-51 -79 -120 -45 c-120 -45
-461 -151 -631 -197 -91 -24 -91 -24 -96 -4 -4 15 -11 19 -26 15 -27 -7 -27
12 0 57 21 36 19 56 -6 56 -14 0 -12 14 7 78 5 17 16 32 23 32 11 0 12 -6 3
-31 -14 -39 2 -60 32 -41 11 7 20 11 20 10 0 -2 -4 -19 -10 -38 -12 -43 -5
-70 20 -70 22 0 110 77 129 114 22 40 34 32 27 -17 -14 -94 28 -104 95 -25
l44 53 5 -35 c4 -27 10 -35 25 -35 21 0 21 5 9 72 -5 24 -3 33 7 33 7 0 33 10
57 22 25 11 75 24 112 27 69 7 120 30 120 56 0 8 -9 15 -20 15 -11 0 -20 -4
-20 -9 0 -12 -46 -28 -103 -36 -26 -3 -64 -13 -83 -21 l-35 -15 35 55 c53 83
76 133 70 150 -9 24 -35 19 -42 -6 -6 -23 -78 -167 -90 -180 -4 -4 -5 29 -3
72 3 76 2 80 -18 80 -20 0 -21 -5 -21 -95 0 -52 -4 -95 -9 -95 -5 0 -26 -23
-46 -51 -20 -28 -39 -49 -41 -46 -3 3 0 32 7 66 12 54 11 63 -3 78 -16 15 -15
20 8 64 30 60 32 109 5 109 -51 0 -160 -124 -145 -164 9 -23 54 -21 54 3 0 19
39 75 47 68 6 -7 -59 -137 -80 -161 -11 -12 -32 -38 -48 -60 -32 -43 -37 -35
-14 21 8 19 15 44 15 55 0 24 -26 34 -47 17 -9 -8 3 21 26 63 43 78 45 98 12
98 -18 0 -131 -110 -131 -128 0 -5 -34 -44 -75 -88 -76 -80 -87 -107 -49 -112
16 -2 27 7 43 34 12 20 24 34 26 32 3 -3 2 -27 -2 -54 -12 -91 -109 -151 -147
-91 -31 49 28 217 87 245 35 17 32 46 -4 50 -68 8 -155 -211 -119 -298 18 -44
77 -60 128 -34 20 10 40 20 45 22 4 2 7 -3 7 -12 0 -10 -16 -19 -42 -26 -215
-56 -282 -75 -1003 -296 -219 -67 -577 -165 -583 -159 -2 1 15 28 36 59 39 54
52 61 52 24 0 -27 38 -23 51 6 12 27 44 36 120 36 31 0 53 6 64 16 31 31 1 36
-83 15 -92 -24 -102 -25 -102 -10 0 5 20 56 44 112 61 139 81 214 67 250 -12
32 -29 34 -79 8 -89 -46 -150 -155 -107 -191 10 -8 15 -30 15 -62 0 -44 -7
-60 -65 -148 -100 -152 -148 -180 -199 -119 -80 94 -70 333 16 393 41 29 108
18 108 -18 0 -50 -11 -66 -45 -66 -29 0 -35 -5 -49 -40 -21 -52 -21 -119 -1
-126 21 -8 45 14 63 56 8 19 25 44 37 56 13 12 28 39 34 60 29 105 -2 149
-102 142 -67 -5 -107 -36 -140 -107 -44 -98 -30 -285 28 -373 l24 -37 -157
-36 c-598 -139 -1100 -291 -1330 -401 -108 -52 -196 -139 -263 -262 l-54 -99
-55 1 c-121 1 -238 -106 -269 -245 -5 -24 -17 -81 -27 -126 -10 -48 -35 -118
-59 -165 -36 -73 -50 -90 -120 -146 -195 -155 -393 -361 -520 -537 -77 -107
-91 -138 -173 -365 -38 -107 -86 -231 -107 -274 -79 -172 -200 -480 -324 -822
-71 -198 -169 -460 -218 -584 l-88 -225 -3 -768 -2 -767 10240 0 10240 0 0
576 0 575 -46 142 c-53 160 -161 514 -230 747 -61 208 -174 656 -219 865 -43
204 -134 516 -176 600 -58 119 -141 202 -261 264 -60 31 -76 55 -137 201 -28
67 -41 115 -44 161 -7 96 -49 170 -172 298 -107 111 -336 301 -483 400 -127
85 -530 315 -767 437 -563 289 -1271 600 -1724 755 -128 44 -518 145 -674 174
-75 14 -198 45 -272 69 -129 42 -137 46 -180 94 -97 107 -222 182 -430 255
-55 20 -172 66 -260 103 -88 36 -194 78 -235 91 -203 66 -459 191 -638 311
-77 51 -229 177 -260 215 -20 24 -41 156 -48 307 -6 126 -4 146 26 295 17 88
60 279 95 425 35 146 80 344 101 440 20 96 60 279 90 405 29 127 56 255 60
285 4 30 17 78 30 106 37 85 69 201 324 1196 69 269 139 496 290 943 54 161
53 186 -7 123 -17 -18 -45 -53 -63 -78 -18 -25 -30 -36 -27 -25 4 11 18 69 32
130 l26 110 -25 18 -26 18 50 97 c72 142 81 154 245 312 325 314 485 427 682
481 223 62 414 -21 453 -195 22 -101 -15 -366 -81 -573 -41 -127 -77 -198
-154 -303 -71 -97 -114 -172 -145 -249 -27 -70 -191 -403 -196 -399 -2 2 6 37
17 78 71 271 20 804 -79 818 -14 2 -25 -3 -29 -14 -3 -10 1 -88 10 -173 21
-191 22 -491 3 -619 -11 -70 -21 -103 -41 -132 -28 -41 -164 -170 -312 -296
-87 -75 -113 -114 -76 -114 10 0 56 29 103 65 47 36 128 98 180 137 52 40 110
89 128 108 l33 35 -45 -85 c-25 -47 -59 -119 -76 -160 -62 -150 -143 -242
-314 -356 -45 -29 -71 -58 -120 -133 -96 -146 -202 -221 -313 -225 -45 -1 -56
3 -83 29 -38 36 -58 100 -68 220 -5 70 -10 90 -22 90 -44 0 -33 -259 14 -339
81 -139 342 -110 489 54 25 28 63 85 84 128 35 71 44 81 113 126 41 27 111 86
155 130 76 76 85 89 149 231 38 83 113 236 167 340 53 105 118 238 143 296 71
170 124 269 180 339 120 150 151 207 208 390 54 174 70 272 72 435 1 145 0
152 -27 207 -34 68 -115 146 -193 184 -36 17 -86 31 -143 38 l-87 11 13 43
c39 137 65 401 67 682 1 127 5 170 23 235 12 44 30 143 39 220 12 106 26 169
56 260 58 171 61 316 12 509 l-15 59 83 164 83 163 -1 133 c0 116 -3 142 -27
213 -50 150 -113 280 -177 364 -57 75 -187 198 -272 259 -42 29 -43 33 -23
116 28 119 14 240 -51 427 -38 108 -105 249 -162 338 -63 100 -145 192 -283
316 -108 98 -150 144 -209 229 -136 196 -308 372 -530 539 -227 171 -578 344
-954 471 -227 76 -383 112 -586 136 -340 39 -521 44 -642 18 -34 -8 -78 -7
-170 5 -244 31 -652 44 -908 29z m453 -120 c-68 -2 -178 -2 -245 0 -68 1 -13
3 122 3 135 0 190 -2 123 -3z m357 -19 c260 -30 510 -83 700 -149 103 -36 307
-134 282 -134 -8 -1 -66 20 -130 45 -64 25 -186 64 -271 86 -86 21 -225 57
-309 78 -136 35 -351 73 -467 83 -37 3 -36 4 10 5 28 1 111 -5 185 -14z m920
-30 c147 -19 190 -30 442 -114 532 -177 839 -332 1138 -575 119 -97 260 -226
260 -239 0 -3 -24 11 -52 33 -29 21 -102 69 -163 106 -60 37 -146 91 -190 120
-237 154 -380 231 -566 306 -153 60 -589 204 -719 237 -63 16 -146 45 -185 64
-38 20 -98 46 -132 58 -35 12 -63 25 -63 27 0 5 60 -1 230 -23z m-1745 -294
c300 -21 635 -100 820 -193 71 -35 198 -118 238 -156 16 -14 40 -48 54 -75
l25 -49 -39 6 c-21 4 -50 7 -65 7 -21 0 -34 11 -58 45 -53 78 -153 169 -226
207 -87 45 -359 131 -502 158 -367 69 -768 52 -1102 -47 -116 -35 -222 -74
-215 -81 3 -3 -5 -16 -16 -28 -20 -21 -20 -24 -5 -30 11 -4 -41 -26 -145 -60
-89 -30 -168 -54 -175 -54 -13 0 -210 -130 -330 -218 -40 -29 -79 -52 -87 -52
-8 0 -79 -43 -158 -95 -78 -52 -148 -95 -155 -95 -29 0 -12 21 59 73 39 29 97
76 127 103 199 180 449 368 568 428 70 35 319 106 507 145 309 63 583 82 880
61z m505 -394 c22 -27 -5 -17 -31 10 -21 24 -22 26 -3 16 11 -6 26 -18 34 -26z
m644 -234 l38 -26 -4 -91 c-5 -93 -19 -136 -61 -188 l-22 -28 -1 123 c-1 111
-14 195 -41 265 -6 14 -2 14 23 -5 16 -13 46 -35 68 -50z m1833 -180 c102 -68
114 -79 138 -131 35 -73 44 -161 21 -196 -14 -21 -20 -24 -32 -14 -8 6 -14 17
-14 25 0 60 -102 233 -189 319 -28 28 -58 60 -67 73 -15 23 -15 23 8 11 13 -7
73 -46 135 -87z m-4527 -15 c-30 -27 -146 -94 -185 -107 -124 -39 -240 -116
-247 -162 -3 -25 -39 -46 -159 -99 -76 -33 -127 -49 -233 -73 -26 -6 -27 -5
-13 9 9 8 18 15 22 15 3 0 47 28 98 63 51 35 133 85 182 112 144 76 225 127
220 135 -8 12 269 117 315 119 13 1 13 -1 0 -12z m-460 -107 c0 -20 -48 -39
-125 -49 -44 -5 -81 -8 -83 -7 -11 11 66 42 128 52 41 6 76 12 78 13 1 0 2 -3
2 -9z m3835 -59 c149 -22 305 -55 560 -118 266 -65 369 -121 488 -265 26 -32
45 -58 41 -58 -3 0 -23 9 -43 20 -20 11 -59 28 -88 39 -28 11 -73 36 -99 56
-97 74 -207 116 -504 190 -224 57 -417 95 -512 102 -49 3 -88 9 -88 13 0 13
58 36 100 39 8 0 74 -8 145 -18z m1858 -98 c129 -64 293 -182 400 -286 89 -86
95 -99 112 -243 8 -71 17 -149 21 -174 l5 -45 -29 47 c-20 29 -33 66 -37 102
-21 166 -161 336 -415 506 -58 38 -115 77 -127 85 -13 9 -23 23 -23 31 0 18
22 13 93 -23z m-5428 -561 c75 -46 307 -163 367 -186 301 -112 825 -165 1306
-132 246 17 352 31 541 72 338 73 706 -5 1314 -278 111 -50 238 -106 282 -124
l80 -33 20 -67 21 -67 96 -43 c98 -44 145 -58 231 -69 57 -8 64 -14 145 -146
132 -210 238 -457 301 -699 47 -181 62 -282 68 -470 4 -144 1 -202 -16 -329
-12 -85 -21 -175 -21 -200 0 -54 15 -115 33 -133 7 -7 27 -42 45 -77 37 -74
39 -101 17 -246 -37 -245 -46 -367 -55 -765 -10 -418 -31 -870 -50 -1055 -23
-221 -71 -577 -90 -676 -99 -501 -348 -1264 -540 -1654 -44 -88 -111 -216
-151 -285 -131 -230 -415 -636 -510 -730 -196 -194 -587 -449 -753 -491 -29
-7 -50 -19 -53 -28 -2 -9 -29 -27 -59 -40 -30 -14 -53 -30 -51 -35 6 -18 66
-7 187 35 174 61 245 78 360 88 99 9 263 53 355 95 17 8 55 24 85 37 30 12 89
40 130 62 41 22 140 73 220 114 319 164 475 259 568 347 l32 30 -6 -34 c-4
-19 -24 -98 -46 -175 -70 -255 -117 -452 -138 -587 -12 -73 -30 -187 -41 -253
-26 -157 -35 -392 -20 -515 7 -52 16 -216 21 -365 10 -289 18 -407 30 -400 13
8 19 75 30 315 5 129 15 307 22 394 l11 159 38 -80 c20 -44 56 -109 79 -144
50 -73 114 -265 132 -394 23 -175 -7 -465 -73 -705 -11 -41 -22 -82 -24 -90
-9 -43 -215 -379 -368 -604 -15 -21 -25 -42 -22 -46 2 -4 -11 -21 -29 -39 -19
-18 -41 -50 -51 -70 -14 -33 -35 -48 -163 -119 -475 -263 -772 -371 -1242
-451 -387 -66 -633 -68 -1046 -6 -195 29 -322 59 -554 132 -207 65 -327 114
-670 275 -238 112 -300 147 -493 284 -39 27 -53 32 -68 24 -27 -15 -24 -39 9
-73 l27 -29 -46 25 c-25 13 -75 48 -109 76 -35 29 -78 60 -97 69 -18 9 -33 20
-33 25 0 5 -36 48 -81 95 -44 47 -99 109 -121 138 -35 46 -38 55 -28 75 9 17
10 129 1 483 -15 604 1 1818 25 1894 3 10 13 6 36 -11 164 -122 492 -289 688
-350 123 -38 323 -83 490 -109 127 -19 184 -22 465 -22 485 -1 611 23 1114
208 123 45 247 107 309 153 35 26 42 62 16 84 -18 15 -107 3 -263 -37 -52 -13
-96 -23 -97 -21 -2 2 41 50 95 107 114 120 255 300 235 300 -16 0 -63 -43 -58
-52 4 -7 2 -8 -5 -4 -6 4 -33 -11 -64 -37 -28 -24 -73 -59 -99 -77 -27 -18
-48 -37 -48 -42 0 -4 -3 -7 -7 -6 -5 1 -37 -14 -73 -34 -109 -62 -142 -73
-363 -123 -351 -80 -776 -95 -1141 -40 -286 43 -736 190 -986 323 -133 70
-268 194 -431 392 -25 30 -77 93 -116 141 -68 80 -76 97 -156 295 -47 115
-106 259 -131 321 -84 204 -153 427 -182 588 -17 95 -38 496 -30 575 4 30 13
314 21 630 17 639 39 1014 90 1505 41 391 51 525 65 825 6 123 14 227 18 230
4 4 33 18 66 31 50 21 61 30 78 67 22 50 59 70 212 118 83 25 87 26 100 9 9
-12 44 -25 107 -37 52 -10 166 -43 254 -72 88 -30 207 -66 265 -81 58 -14 127
-37 154 -51 28 -13 67 -24 88 -24 102 0 389 -138 493 -237 22 -21 41 -40 42
-43 1 -3 7 -18 13 -34 6 -16 20 -108 31 -205 18 -150 19 -191 10 -278 -12
-117 -72 -383 -102 -458 -85 -208 -141 -355 -168 -445 -32 -107 -55 -277 -38
-287 16 -10 34 22 46 81 6 33 31 107 55 165 24 58 71 171 104 251 33 80 94
218 135 305 129 275 173 435 165 590 -6 104 -40 177 -142 310 -43 55 -100 131
-128 168 -32 43 -67 76 -91 89 -30 15 -37 22 -26 29 8 5 23 9 34 9 36 1 52 17
38 39 -10 15 -4 42 33 155 55 167 63 216 39 239 -24 24 -59 21 -94 -9 l-30
-25 -43 29 c-59 40 -103 62 -127 62 -11 0 -61 25 -112 56 -217 132 -575 229
-777 209 -243 -24 -399 -86 -564 -225 -21 -18 -38 -27 -38 -21 0 17 37 183 65
291 13 52 26 106 29 120 3 14 12 57 21 95 42 191 77 429 105 704 52 515 73
578 253 763 141 145 362 351 447 418 79 62 142 121 136 127 -3 3 3 14 14 25
10 11 37 55 61 98 24 44 46 80 49 80 3 0 19 -8 35 -18z m4832 -1824 c-3 -8 -6
-5 -6 6 -1 11 2 17 5 13 3 -3 4 -12 1 -19z m-5697 -808 c-8 -5 -19 -10 -25
-10 -5 0 -3 5 5 10 8 5 20 10 25 10 6 0 3 -5 -5 -10z m-664 -63 c23 -27 31
-75 37 -225 2 -40 8 -76 13 -80 6 -4 16 -35 23 -68 14 -66 29 -97 37 -78 4 9
13 9 37 1 18 -7 33 -12 34 -12 1 0 -6 -31 -16 -67 -17 -66 -31 -96 -31 -66 0
39 -85 183 -147 249 -69 73 -114 96 -158 79 -47 -18 -57 -50 -58 -183 -1 -143
15 -201 55 -195 22 3 23 7 19 67 -5 92 8 191 24 191 7 0 28 -18 45 -40 l32
-40 -27 -22 c-15 -12 -33 -35 -41 -53 -17 -42 -30 -200 -16 -209 6 -4 10 18
10 59 0 62 21 153 41 184 8 12 13 8 28 -18 31 -56 55 -82 70 -77 8 3 11 1 8
-4 -9 -15 64 -100 86 -100 14 0 19 -7 19 -25 0 -14 -4 -25 -10 -25 -5 0 -14
-17 -19 -37 -22 -82 -101 -537 -121 -703 -12 -96 -25 -183 -29 -194 -5 -13
-15 6 -35 71 l-27 90 25 99 c14 54 44 150 66 213 27 74 40 128 39 155 -1 23 3
58 10 79 15 43 8 57 -17 39 -9 -7 -29 -20 -44 -30 -32 -20 -47 -49 -55 -106
-3 -23 -18 -72 -33 -111 -15 -38 -36 -98 -45 -132 -10 -35 -21 -63 -24 -63
-12 0 -33 248 -46 560 -12 284 -15 311 -41 395 -39 130 -38 209 4 300 57 121
116 168 201 162 43 -3 59 -9 77 -30z m143 -1011 c-5 -6 -9 10 -8 40 l1 49 8
-40 c5 -22 4 -44 -1 -49z m-132 -2793 c-2 -27 -3 -5 -3 47 0 52 1 74 3 48 2
-27 2 -69 0 -95z m11 -333 c-1 -111 -1 -112 -8 -40 -4 41 -7 116 -7 165 0 79
1 84 7 40 5 -27 8 -102 8 -165z m6015 -1075 c-3 -9 -8 -14 -10 -11 -3 3 -2 9
2 15 9 16 15 13 8 -4z m-5382 -783 c-1 -59 -5 -109 -7 -111 -2 -2 -4 49 -4
114 0 65 3 115 7 111 5 -4 6 -56 4 -114z m-157 -1106 c-3 -9 -10 -16 -15 -16
-5 0 -4 9 3 20 14 22 21 20 12 -4z m-73 -147 c-5 -13 -10 -19 -10 -12 -1 15
10 45 15 40 3 -2 0 -15 -5 -28z m-21 -97 c-13 -76 -33 -130 -24 -62 7 55 25
132 30 127 2 -2 -1 -31 -6 -65z m219 -229 c-1 -82 -2 -85 -11 -44 -9 40 -3
131 8 131 2 0 4 -39 3 -87z m-236 -123 c4 -35 2 -47 -3 -34 -5 12 -11 55 -14
95 -6 83 7 36 17 -61z m-3493 -122 c0 -18 -21 -82 -46 -143 l-45 -110 5 57 c3
40 1 60 -8 65 -38 23 -22 78 39 132 45 39 55 39 55 -1z m9281 -255 c-49 -94
-160 -275 -161 -261 0 4 14 30 30 58 17 28 30 55 30 60 0 6 5 10 10 10 6 0 10
5 10 11 0 5 11 26 25 46 13 20 22 40 19 45 -3 4 -1 8 5 8 5 0 24 29 42 65 18
35 35 63 37 60 2 -2 -19 -48 -47 -102z m-5521 -268 c0 -5 -5 -3 -10 5 -5 8
-10 20 -10 25 0 6 5 3 10 -5 5 -8 10 -19 10 -25z m301 -492 c13 -16 12 -17 -3
-4 -10 7 -18 15 -18 17 0 8 8 3 21 -13z"/>
<path d="M12200 14149 c-47 -5 -132 -20 -190 -33 l-105 -24 145 0 c80 0 280
-5 446 -9 294 -9 302 -10 342 -34 22 -13 55 -45 74 -70 18 -26 61 -82 96 -124
34 -43 63 -85 63 -94 1 -9 2 -20 4 -26 1 -5 3 -22 3 -36 2 -31 29 -46 48 -27
11 11 9 25 -10 78 -41 116 -79 182 -146 250 -121 123 -207 150 -490 155 -107
2 -233 -1 -280 -6z"/>
<path d="M10775 13936 c-39 -19 -85 -46 -104 -60 -43 -32 -45 -32 -84 -2 -80
60 -153 71 -187 29 -19 -24 -22 -36 -17 -93 8 -94 54 -278 78 -312 17 -23 27
-28 52 -26 23 2 34 -2 42 -18 18 -37 37 -54 57 -54 10 0 93 25 183 55 90 31
195 62 232 70 86 19 541 39 690 31 244 -13 525 -80 747 -178 128 -56 341 -172
410 -224 33 -24 67 -44 75 -44 9 0 25 -7 36 -15 19 -15 19 -15 -3 -31 -12 -8
-22 -18 -22 -22 0 -13 108 -62 135 -62 32 0 44 40 22 73 -10 15 -12 29 -6 38
13 21 10 125 -6 202 -21 98 -59 161 -155 257 -93 92 -185 152 -337 219 -333
146 -871 221 -1389 193 -120 -7 -235 -16 -255 -21 -28 -6 -40 -4 -58 10 -33
27 -57 24 -136 -15z"/>
<path d="M8172 13640 c-94 -17 -120 -34 -147 -92 -18 -38 -21 -55 -13 -65 14
-18 25 -9 39 35 17 53 34 69 90 82 108 26 627 -28 922 -96 20 -5 27 -3 27 9 0
29 -32 36 -423 92 -276 39 -416 49 -495 35z"/>
<path d="M8253 13501 c-62 -22 -136 -52 -165 -68 -63 -34 -162 -126 -156 -144
10 -29 51 -19 161 39 94 50 282 122 317 122 7 0 7 -6 0 -19 -5 -11 -10 -44
-10 -74 0 -46 6 -63 34 -106 l35 -51 -79 0 c-82 0 -115 -15 -104 -45 13 -32
101 -42 491 -55 160 -5 322 -12 358 -16 62 -6 67 -6 63 12 -3 15 -16 20 -68
27 -36 4 -75 9 -88 12 -23 6 -23 6 8 31 16 14 30 33 30 41 0 18 0 18 150 -43
122 -50 200 -67 200 -43 0 9 -20 19 -51 26 -79 19 -203 84 -319 169 -120 86
-314 185 -411 208 -39 10 -109 16 -175 16 -101 0 -117 -3 -221 -39z m401 -147
c23 -22 20 -57 -9 -88 -28 -30 -51 -33 -83 -10 -15 10 -22 25 -22 49 0 56 75
88 114 49z"/>
<path d="M11285 13180 c-134 -8 -194 -20 -260 -51 -44 -21 -85 -70 -85 -103 0
-26 14 -19 48 23 59 74 201 102 492 99 l125 -1 -100 -8 c-109 -8 -221 -33
-360 -81 -176 -60 -361 -151 -372 -183 -2 -6 3 -19 11 -30 12 -17 18 -18 72
-6 33 7 120 37 194 66 167 66 400 136 400 120 0 -2 -10 -20 -21 -40 -13 -22
-23 -60 -26 -100 -5 -53 -2 -69 16 -98 l22 -35 -56 -7 c-54 -7 -75 -18 -56
-29 13 -9 133 -23 376 -46 262 -25 520 -25 520 0 0 10 -12 16 -35 17 -19 2
-68 6 -108 9 l-74 6 21 21 c11 12 28 41 39 65 l19 42 44 -33 c66 -50 223 -137
248 -137 12 0 21 6 21 15 0 8 -5 15 -10 15 -24 0 -182 114 -265 191 -50 46
-108 98 -130 115 -79 62 -205 114 -323 134 l-47 8 52 1 c62 1 247 -22 386 -49
66 -13 113 -28 136 -44 20 -14 90 -63 156 -110 66 -47 126 -86 133 -86 29 0 6
29 -64 80 -42 30 -105 80 -142 112 -78 67 -139 90 -303 112 -253 35 -435 41
-694 26z m366 -225 c63 -33 52 -118 -19 -139 -83 -23 -129 102 -52 141 32 16
35 16 71 -2z"/>
<path d="M8950 11873 c-19 -9 -68 -49 -107 -89 -55 -54 -82 -91 -110 -150 -37
-77 -38 -81 -36 -184 4 -185 63 -295 202 -377 25 -14 67 -42 93 -60 26 -18 57
-33 69 -33 11 0 58 -21 103 -47 88 -52 88 -52 226 -114 81 -36 107 -43 176
-47 115 -6 222 32 366 129 53 36 63 40 100 34 31 -6 51 -2 89 15 l48 23 122
-27 c150 -34 211 -36 264 -8 62 31 137 117 179 206 79 168 87 298 26 419 -71
140 -137 185 -250 174 -140 -15 -301 -100 -249 -132 5 -4 33 3 60 14 54 24
122 21 186 -6 37 -15 130 -121 139 -159 21 -83 -25 -217 -95 -274 -77 -64
-248 -79 -310 -27 -48 40 -130 61 -208 52 -54 -6 -92 -21 -230 -91 -146 -74
-172 -84 -219 -84 -62 0 -167 21 -256 51 -60 20 -309 155 -316 172 -6 11 -22
26 -111 97 l-82 65 4 71 c3 61 10 83 43 142 42 76 90 139 142 189 60 55 20 94
-58 56z"/>
<path d="M8222 10425 c-62 -27 -105 -97 -68 -111 8 -3 32 4 55 15 53 27 64 27
128 -9 137 -77 363 -120 793 -150 162 -11 336 -27 385 -36 165 -28 359 -64
450 -84 50 -10 158 -30 240 -44 83 -13 213 -35 290 -48 149 -24 328 -30 480
-14 l80 8 70 -54 c73 -56 132 -88 159 -88 33 0 13 26 -46 60 -33 19 -77 54
-98 77 -20 23 -49 47 -64 53 -15 5 -105 9 -204 9 -217 -1 -204 -3 -807 111
-452 86 -677 119 -1070 155 -340 31 -437 51 -580 121 -97 47 -137 53 -193 29z"/>
<path d="M8666 9953 c-3 -4 1 -17 9 -30 19 -28 11 -29 -22 -3 -28 22 -63 27
-63 9 0 -7 15 -35 33 -63 18 -28 39 -62 46 -76 23 -45 190 -168 306 -225 137
-68 353 -140 465 -156 89 -13 332 -7 446 10 68 10 248 92 310 142 21 17 58 42
82 56 45 27 54 38 22 29 -57 -16 -62 -15 -25 6 30 18 40 30 40 48 0 30 -4 30
-120 -12 -84 -30 -101 -33 -242 -36 -389 -10 -751 55 -1043 187 -58 27 -116
53 -130 59 -14 6 -43 22 -66 36 -23 14 -44 23 -48 19z"/>
<path d="M15149 12670 c-87 -14 -173 -46 -303 -113 -93 -48 -137 -78 -198
-136 -88 -83 -135 -145 -144 -191 -4 -17 -11 -33 -15 -36 -13 -8 -11 -34 4
-39 7 -3 84 36 172 86 350 199 536 272 622 241 55 -19 84 22 42 59 -21 18 -42
24 -119 33 -19 2 6 3 56 2 101 -2 137 -17 155 -64 13 -32 6 -171 -10 -200 -8
-15 -7 -23 4 -32 20 -17 41 30 58 128 25 139 1 203 -89 243 -49 22 -158 31
-235 19z m-9 -110 c-34 -11 -60 -11 -35 0 11 5 29 8 40 8 16 0 15 -2 -5 -8z"/>
<path d="M14390 11810 c-13 -11 -34 -20 -47 -20 -15 0 -27 -9 -35 -25 -9 -21
-6 -48 20 -153 40 -166 45 -197 38 -225 -3 -13 -56 -71 -118 -127 -136 -124
-166 -163 -148 -185 16 -20 26 -19 60 5 18 13 31 16 35 10 13 -22 46 -6 190
90 83 55 155 104 161 109 5 5 21 14 35 21 59 32 63 82 19 226 -39 124 -94 237
-132 269 -36 30 -48 31 -78 5z m35 -102 c4 -17 3 -28 -3 -28 -10 0 -22 32 -22
60 0 22 18 -1 25 -32z m29 -437 c-8 -8 -43 -8 -38 0 2 4 13 7 24 6 10 -1 17
-3 14 -6z"/>
<path d="M5384 6668 c-27 -24 -71 -65 -98 -93 l-48 -50 -10 25 c-5 14 -8 52
-6 85 2 48 0 60 -12 60 -23 0 -16 -113 15 -218 14 -48 25 -90 25 -94 0 -12
-89 79 -117 120 -19 27 -33 37 -47 35 -27 -4 -32 -49 -16 -141 l12 -68 -41
-44 c-38 -41 -41 -43 -35 -17 4 15 11 37 15 50 15 39 11 82 -7 82 -18 0 -13
22 18 83 14 29 16 42 8 57 -15 28 -37 25 -72 -10 -24 -24 -29 -37 -26 -61 3
-19 -4 -54 -18 -88 -13 -31 -21 -64 -18 -74 3 -10 0 -24 -6 -32 -16 -19 -100
-21 -100 -2 0 6 16 39 36 72 128 210 108 295 -36 159 -73 -69 -82 -92 -55
-128 20 -26 21 -136 1 -136 -7 0 -25 -17 -39 -37 -15 -21 -43 -51 -63 -67
l-37 -29 7 29 c4 16 23 64 42 107 19 43 32 83 29 88 -9 14 -26 11 -47 -8 -10
-9 -18 -12 -18 -6 0 20 47 78 73 91 31 15 33 45 4 50 -27 5 -51 -21 -82 -89
-29 -66 -27 -95 6 -86 16 4 19 2 14 -11 -34 -87 -55 -166 -46 -175 17 -17 54
1 117 58 56 50 62 53 67 34 6 -24 26 -21 41 5 8 14 8 20 -1 23 -26 9 -12 19
20 15 27 -3 76 12 118 35 3 2 4 -9 1 -25 -4 -28 17 -62 39 -62 5 0 31 23 59
50 46 45 52 49 66 35 19 -18 26 -19 42 -3 16 16 15 39 -3 52 -18 13 -55 115
-55 152 l0 27 22 -29 c64 -86 130 -136 151 -115 8 8 6 27 -7 67 -16 51 -16 57
-2 73 9 10 16 25 16 34 0 9 5 17 10 17 6 0 10 -24 11 -52 0 -29 6 -75 13 -103
9 -39 15 -50 31 -50 15 0 19 6 17 25 -1 14 -6 74 -10 134 l-7 108 55 40 c30
22 55 44 55 50 0 24 -23 16 -71 -24z m-527 -200 c-8 -18 -23 -48 -34 -65 l-20
-33 1 35 c1 23 11 44 31 65 16 16 30 30 32 30 2 0 -3 -15 -10 -32z"/>
<path d="M4580 6467 c-10 -23 -26 -100 -35 -172 -9 -71 -18 -131 -20 -133 -8
-8 -56 113 -62 155 -4 33 -10 43 -25 43 -10 0 -21 -6 -24 -14 -6 -16 28 -102
63 -158 21 -34 21 -38 6 -38 -10 0 -36 -11 -58 -25 -22 -13 -43 -25 -47 -25
-4 0 -8 21 -10 48 -3 44 -5 47 -30 47 -16 -1 -28 1 -28 2 0 2 11 31 25 65 28
69 30 89 13 106 -17 17 -22 15 -57 -14 -23 -19 -31 -34 -31 -59 0 -18 5 -35
12 -37 9 -3 9 -15 -1 -50 -16 -56 -8 -71 31 -66 l30 5 -6 -44 c-4 -33 -2 -45
8 -49 18 -7 166 64 166 79 0 6 7 1 16 -11 21 -31 34 -19 34 34 0 67 28 242 44
273 8 15 22 33 30 40 22 19 20 41 -5 41 -14 0 -26 -12 -39 -43z"/>
</g>
</svg>
